<?xml version="1.0" encoding="UTF-8"?>
<svg id="Layer_1" data-name="Layer 1" xmlns="http://www.w3.org/2000/svg" viewBox="0 0 1080 1080">
  <defs>
    <style>
      .cls-1 {
        fill: #072a62;
      }

      .cls-2 {
        fill: #448cfb;
      }
    </style>
  </defs>
  <rect class="cls-2" width="1080" height="1080" rx="167.75" ry="167.75"/>
  <g>
    <path class="cls-1" d="M323.85,562.58l75.77,63.48c18.41,15.43,39.15,28.48,53.49,47.46l29.04,38.45-13.74,70.34c-18.84-34.14-41.74-61.39-70.68-85.38l-80.49-66.71c-30.63-25.39-54.22-55.5-73.26-90.11-22.45-40.79-31.02-83.61-31.75-130.64-16.41,46.71-22.43,92.56-22.11,139.75.49,71.91,22.29,137.74,61.36,196.92,47.1,71.34,116.45,121.03,196.27,148.3l-9.23,54.75c-107.15-31.5-201.19-107.61-252.76-204.69-111.42-209.76-32.37-469.8,175.21-582.95,195.99-106.83,423.04-21.82,528.85,168.23,89.34,160.46,68.83,360.86-54.27,498.14-69.38,77.38-174.8,132.24-279.02,137.2l-.3-94.45c-.34-105.85,39.48-181.97,123.16-245.01,34.96-26.34,67.57-52.77,96.29-85.37,53.36-60.56,66.5-145.33,31.86-218.22-12.54-26.39-30.99-47.54-53.22-66.86-46.32-40.25-102.71-67.06-163.6-77.84-96.58-17.1-197.67,18.22-270.1,82.89-50.8,45.36-75.04,111.24-64.02,179.09,7.81,48.09,31.43,88.88,67.25,123.22ZM782.19,642.3c25.74-20.91,42.79-44.67,61.73-73.3-6.07,90.8-50.68,175.18-125.23,226.86l-43.65,30.26c-27.02,18.73-49,42.79-63.71,74.33,71.29-19.8,133.5-56.66,182.05-110.22,98.12-108.25,120.76-247.91,73.4-384.22,0,32.42-1.48,61.99-11.86,91.72-19.14,54.8-53.56,99.75-98.03,136.21l-67.17,55.06c-56.92,46.66-97.53,107.13-112.22,180.54l24.18-38.75c10.84-17.38,25.94-32.21,42.32-44.84l58.5-45.11c20.22-15.59,36.59-33.71,51.62-54.46l28.07-44.08Z"/>
    <polygon class="cls-1" points="507.79 818.51 480.13 870.09 530.64 599.47 411.09 599.37 581.95 280.09 605.22 238.39 553.7 510.79 670.76 511.06 636.7 574.23 507.79 818.51"/>
    <path class="cls-1" d="M546.33,292.88c-120.54-1.92-219.55,90.29-240.06,210.36-20.19-27.18-26.92-58.7-29.17-90.05,31.2-69.85,85.5-123.56,154.73-154.42,45.58-19.97,93.64-27.22,143.86-21.55l-29.36,55.65Z"/>
    <path class="cls-1" d="M463.33,813.24l-10.95,58.23-26.31-28-41.22-30.14c-20.72-15.15-41.56-28-59.49-46.41-52.46-53.86-83.77-122.8-89.75-197.58,20.44,29.64,38.86,55.37,66.15,76.49,19.15,43.65,50.57,78.17,88.75,106.69,26.28,18.17,49.16,36.16,72.82,60.72Z"/>
    <path class="cls-1" d="M774.9,502c-21.86-92.35-68.07-156.96-155.52-194.44l10.35-56.92c37.86,14.37,71.81,33.23,100.6,60.94,31.05,29.88,57.34,61.63,73.21,102.69-2.94,29.88-10.34,59.37-28.64,87.73Z"/>
    <path class="cls-1" d="M405.44,550.51l-16.96,35.55-37.01-30.49c2.3-96.21,63.15-183.29,159.81-198.73l-38.56,71.92c-41.61,26.22-67.84,70.36-67.28,121.75Z"/>
    <path class="cls-1" d="M714.98,482.9l-56.58,1.26c-14.03-26.28-33.48-47.3-60.35-60.85l10.34-55.65c24.56,9.93,45.51,24.94,63.62,43.51,17.82,21.53,32.76,41.44,42.97,71.73Z"/>
    <polygon class="cls-1" points="523.78 964.21 464.58 956.48 505.17 877.43 523.38 847.02 523.78 964.21"/>
    <path class="cls-1" d="M668.16,604.45l6.72-43.31,40.06-77.15c9.09,23.73,11.61,47.81,11.56,72.81l-58.34,47.65Z"/>
  </g>
</svg>